<?xml version="1.0" encoding="utf-8"?>
<!-- Generator: Adobe Illustrator 15.0.0, SVG Export Plug-In . SVG Version: 6.00 Build 0)  -->
<!DOCTYPE svg PUBLIC "-//W3C//DTD SVG 1.1//EN" "http://www.w3.org/Graphics/SVG/1.1/DTD/svg11.dtd">
<svg version="1.1" id="Layer_1" xmlns="http://www.w3.org/2000/svg" xmlns:xlink="http://www.w3.org/1999/xlink" x="0px" y="0px"
	 width="612px" height="792px" viewBox="0 0 612 792" enable-background="new 0 0 612 792" xml:space="preserve">
<path fill="#ABCC9B" stroke="#000000" stroke-width="2" stroke-miterlimit="10" d="M192.75,419c0,6.627-5.225,12-11.67,12H27.42
	c-6.445,0-11.67-5.373-11.67-12v-47c0-6.627,5.225-12,11.67-12h153.66c6.445,0,11.67,5.373,11.67,12V419z"/>
<path fill="#FCF6B6" stroke="#000000" stroke-width="2" stroke-miterlimit="10" d="M391.75,419c0,6.627-5.225,12-11.67,12H226.42
	c-6.445,0-11.67-5.373-11.67-12v-47c0-6.627,5.225-12,11.67-12h153.66c6.445,0,11.67,5.373,11.67,12V419L391.75,419z"/>
<path fill="#9DCDC9" stroke="#000000" stroke-width="2" stroke-miterlimit="10" d="M590.5,419c0,6.627-5.225,12-11.67,12H425.17
	c-6.445,0-11.67-5.373-11.67-12v-47c0-6.627,5.225-12,11.67-12h153.66c6.445,0,11.67,5.373,11.67,12V419z"/>
<rect x="25.25" y="431" fill="#E6E7E8" stroke="#000000" stroke-width="2" stroke-miterlimit="10" width="158" height="192"/>
<rect x="224.125" y="431" fill="#E6E7E8" stroke="#000000" stroke-width="2" stroke-miterlimit="10" width="158" height="192"/>
<rect x="423" y="431" fill="#E6E7E8" stroke="#000000" stroke-width="2" stroke-miterlimit="10" width="158" height="192"/>
<text transform="matrix(1 0 0 1 61.7827 388)" font-family="'MyriadPro-Regular'" font-size="24">Working</text>
<text transform="matrix(1 0 0 1 58.0029 416.7998)" font-family="'MyriadPro-Regular'" font-size="24">Directory</text>
<text transform="matrix(1 0 0 1 277.6084 388)" font-family="'MyriadPro-Regular'" font-size="24">Stage</text>
<text transform="matrix(1 0 0 1 271.3203 416.7998)" font-family="'MyriadPro-Regular'" font-size="24">(Index)</text>
<text transform="matrix(1 0 0 1 475.7559 388)" font-family="'MyriadPro-Regular'" font-size="24">Local</text>
<text transform="matrix(1 0 0 1 448.4209 416.7998)" font-family="'MyriadPro-Regular'" font-size="24">Repository</text>
<g>
	<line fill="none" x1="104.25" y1="431" x2="104.25" y2="623"/>
	<g>
		<line fill="none" stroke="#6D6E71" stroke-width="4" stroke-miterlimit="10" x1="104.25" y1="431" x2="104.25" y2="437"/>
		
			<line fill="none" stroke="#6D6E71" stroke-width="4" stroke-miterlimit="10" stroke-dasharray="12,12" x1="104.25" y1="449" x2="104.25" y2="611"/>
		<line fill="none" stroke="#6D6E71" stroke-width="4" stroke-miterlimit="10" x1="104.25" y1="617" x2="104.25" y2="623"/>
	</g>
</g>
<g>
	<g>
		<line fill="none" stroke="#6D6E71" stroke-width="4" stroke-miterlimit="10" x1="303.125" y1="431" x2="303.125" y2="437"/>
		
			<line fill="none" stroke="#6D6E71" stroke-width="4" stroke-miterlimit="10" stroke-dasharray="12,12" x1="303.125" y1="449" x2="303.125" y2="611"/>
		<line fill="none" stroke="#6D6E71" stroke-width="4" stroke-miterlimit="10" x1="303.125" y1="617" x2="303.125" y2="623"/>
	</g>
</g>
<g>
	<g>
		<line fill="none" stroke="#6D6E71" stroke-width="4" stroke-miterlimit="10" x1="502" y1="431" x2="502" y2="437"/>
		
			<line fill="none" stroke="#6D6E71" stroke-width="4" stroke-miterlimit="10" stroke-dasharray="12,12" x1="502" y1="449" x2="502" y2="611"/>
		<line fill="none" stroke="#6D6E71" stroke-width="4" stroke-miterlimit="10" x1="502" y1="617" x2="502" y2="623"/>
	</g>
</g>
<rect x="104.25" y="521.566" fill="#7BD1EA" stroke="#71C8F1" stroke-width="2" stroke-miterlimit="10" width="198.875" height="28.434"/>
<text transform="matrix(1 0 0 1 155.6113 540.7832)" font-family="'LucidaConsole'" font-size="18">git diff</text>
<rect x="104.813" y="466.566" fill="#7BD1EA" stroke="#71C8F1" stroke-width="2" stroke-miterlimit="10" width="397.187" height="28.434"/>
<text transform="matrix(1 0 0 1 234.1738 485.7832)" font-family="'LucidaConsole'" font-size="18">git diff HEAD</text>
<rect x="303.688" y="564" fill="#7BD1EA" stroke="#71C8F1" stroke-width="2" stroke-miterlimit="10" width="198.875" height="28.434"/>
<text transform="matrix(1 0 0 1 310.0488 583.2168)" font-family="'LucidaConsole'" font-size="18">git diff --staged</text>
<path fill="#ADAFB2" stroke="#231F20" stroke-miterlimit="10" d="M548.219,195.514c0,9.657-5.373,17.486-12,17.486h-72
	c-6.627,0-12-7.829-12-17.486v-16.028c0-9.657,5.373-17.486,12-17.486h72c6.627,0,12,7.829,12,17.486V195.514z"/>
<path fill="#FDCC9A" stroke="#FBBF9C" stroke-miterlimit="10" d="M548.219,214.5c0,6.627-5.373,12-12,12h-72
	c-6.627,0-12-5.373-12-12v-11c0-6.628,5.373-12,12-12h72c6.627,0,12,5.372,12,12V214.5z"/>
<path fill="#C7BEDC" stroke="#231F20" stroke-width="2" stroke-miterlimit="10" d="M562.281,289c0,6.627-5.373,12-12,12h-99
	c-6.627,0-12-5.373-12-12v-16c0-6.627,5.373-12,12-12h99c6.627,0,12,5.373,12,12V289z"/>
<g>
	<g>
		<line fill="none" stroke="#231F20" stroke-width="2" stroke-miterlimit="10" x1="500.781" y1="301" x2="500.781" y2="351.379"/>
		<g>
			<path fill="#231F20" d="M500.781,350.574c2.09-2.09,6.223-3.086,9.09-3.168c-3.85,2.865-7.207,6.589-9.09,11.094
				c-1.803-4.505-5.363-8.064-9.09-11.094C494.762,347.652,498.488,348.402,500.781,350.574z"/>
		</g>
	</g>
</g>
<path fill="#C7BEDC" stroke="#231F20" stroke-width="2" stroke-miterlimit="10" d="M376.625,289c0,6.627-5.373,12-12,12h-99
	c-6.627,0-12-5.373-12-12v-16c0-6.627,5.373-12,12-12h99c6.627,0,12,5.373,12,12V289z"/>
<path fill="#C7BEDC" stroke="#231F20" stroke-width="2" stroke-miterlimit="10" d="M190.969,289c0,6.627-5.373,12-12,12h-99
	c-6.627,0-12-5.373-12-12v-16c0-6.627,5.373-12,12-12h99c6.627,0,12,5.373,12,12V289z"/>
<g>
	<g>
		
			<line fill="none" stroke="#231F20" stroke-width="2" stroke-miterlimit="10" x1="436.64" y1="280.979" x2="386.261" y2="281.016"/>
		<g>
			<path fill="#231F20" d="M387.065,281.015c2.092,2.088,3.09,6.22,3.175,9.087c-2.868-3.848-6.595-7.202-11.101-9.082
				c4.504-1.806,8.061-5.369,11.087-9.098C389.983,274.992,389.235,278.72,387.065,281.015z"/>
		</g>
	</g>
</g>
<g>
	<g>
		
			<line fill="none" stroke="#231F20" stroke-width="2" stroke-miterlimit="10" x1="250.625" y1="280.959" x2="200.246" y2="280.996"/>
		<g>
			<path fill="#231F20" d="M201.051,280.994c2.092,2.088,3.09,6.221,3.175,9.088c-2.868-3.848-6.595-7.203-11.101-9.082
				c4.504-1.807,8.061-5.369,11.087-9.098C203.969,274.973,203.221,278.699,201.051,280.994z"/>
		</g>
	</g>
</g>
<text transform="matrix(1 0 0 1 473.9746 286)" font-family="'MyriadPro-Regular'" font-size="21">6e538</text>
<text transform="matrix(1 0 0 1 287.9746 286)" font-family="'MyriadPro-Regular'" font-size="21">31dba</text>
<text transform="matrix(1 0 0 1 102.4688 286)" font-family="'MyriadPro-Regular'" font-size="21">bc07e</text>
<text transform="matrix(1 0 0 1 469.7188 217)" font-family="'MyriadPro-Regular'" font-size="21">Master</text>
<g>
	<g>
		
			<line fill="none" stroke="#231F20" stroke-width="2" stroke-miterlimit="10" x1="500.781" y1="228.75" x2="500.781" y2="250.379"/>
		<g>
			<path fill="#231F20" d="M500.781,249.574c2.09-2.09,6.223-3.086,9.09-3.168c-3.85,2.865-7.207,6.589-9.09,11.094
				c-1.803-4.505-5.363-8.064-9.09-11.094C494.762,246.652,498.488,247.402,500.781,249.574z"/>
		</g>
	</g>
</g>
<text transform="matrix(1 0 0 1 473.9746 185)" font-family="'MyriadPro-Regular'" font-size="21">HEAD</text>
</svg>
