<?xml version="1.0" encoding="utf-8"?>
<!-- Generator: Adobe Illustrator 15.0.0, SVG Export Plug-In . SVG Version: 6.00 Build 0)  -->
<!DOCTYPE svg PUBLIC "-//W3C//DTD SVG 1.1//EN" "http://www.w3.org/Graphics/SVG/1.1/DTD/svg11.dtd">
<svg version="1.1" id="Layer_1" xmlns="http://www.w3.org/2000/svg" xmlns:xlink="http://www.w3.org/1999/xlink" x="0px" y="0px"
	 width="612px" height="792px" viewBox="0 0 612 792" enable-background="new 0 0 612 792" xml:space="preserve">
<path fill="#ABCC9B" stroke="#000000" stroke-width="2" stroke-miterlimit="10" d="M194.229,402c0,6.627-5.225,12-11.67,12H28.898
	c-6.445,0-11.67-5.373-11.67-12v-47c0-6.627,5.225-12,11.67-12h153.66c6.445,0,11.67,5.373,11.67,12V402z"/>
<path fill="#FCF6B6" stroke="#000000" stroke-width="2" stroke-miterlimit="10" d="M393.229,402c0,6.627-5.225,12-11.67,12h-153.66
	c-6.445,0-11.67-5.373-11.67-12v-47c0-6.627,5.225-12,11.67-12h153.66c6.445,0,11.67,5.373,11.67,12V402L393.229,402z"/>
<path fill="#9DCDC9" stroke="#000000" stroke-width="2" stroke-miterlimit="10" d="M591.979,402c0,6.627-5.225,12-11.67,12h-153.66
	c-6.445,0-11.67-5.373-11.67-12v-47c0-6.627,5.225-12,11.67-12h153.66c6.445,0,11.67,5.373,11.67,12V402z"/>
<rect x="26.729" y="414" fill="#E6E7E8" stroke="#000000" stroke-width="2" stroke-miterlimit="10" width="158" height="192"/>
<rect x="225.604" y="414" fill="#E6E7E8" stroke="#000000" stroke-width="2" stroke-miterlimit="10" width="158" height="192"/>
<rect x="424.479" y="414" fill="#E6E7E8" stroke="#000000" stroke-width="2" stroke-miterlimit="10" width="158" height="192"/>
<text transform="matrix(1 0 0 1 63.2612 371)" font-family="'MyriadPro-Regular'" font-size="24">Working</text>
<text transform="matrix(1 0 0 1 59.4814 399.7998)" font-family="'MyriadPro-Regular'" font-size="24">Directory</text>
<text transform="matrix(1 0 0 1 279.0869 371)" font-family="'MyriadPro-Regular'" font-size="24">Stage</text>
<text transform="matrix(1 0 0 1 272.7988 399.7998)" font-family="'MyriadPro-Regular'" font-size="24">(Index)</text>
<text transform="matrix(1 0 0 1 477.2344 371)" font-family="'MyriadPro-Regular'" font-size="24">Local</text>
<text transform="matrix(1 0 0 1 449.8994 399.7998)" font-family="'MyriadPro-Regular'" font-size="24">Repository</text>
<g>
	<line fill="none" x1="105.729" y1="414" x2="105.729" y2="606"/>
	<g>
		<line fill="none" stroke="#6D6E71" stroke-width="4" stroke-miterlimit="10" x1="105.729" y1="414" x2="105.729" y2="420"/>
		
			<line fill="none" stroke="#6D6E71" stroke-width="4" stroke-miterlimit="10" stroke-dasharray="12,12" x1="105.729" y1="432" x2="105.729" y2="594"/>
		<line fill="none" stroke="#6D6E71" stroke-width="4" stroke-miterlimit="10" x1="105.729" y1="600" x2="105.729" y2="606"/>
	</g>
</g>
<path fill="#CFE4F6" stroke="#58595B" stroke-width="2" stroke-miterlimit="10" d="M173.867,454
	c0,10.081-5.953,18.252-13.295,18.252H50.886c-7.343,0-13.295-8.172-13.295-18.252l0,0c0-10.08,5.953-18.252,13.295-18.252h109.686
	C167.915,435.748,173.867,443.92,173.867,454L173.867,454z"/>
<text transform="matrix(1 0 0 1 90.5132 461)" font-family="'MyriadPro-Regular'" font-size="21">file.txt</text>
<text transform="matrix(1 0 0 1 49.8496 461)" font-family="'MyriadPro-It'" font-size="14">v1</text>
<g>
	<g>
		<line fill="none" stroke="#6D6E71" stroke-width="4" stroke-miterlimit="10" x1="304.604" y1="414" x2="304.604" y2="420"/>
		
			<line fill="none" stroke="#6D6E71" stroke-width="4" stroke-miterlimit="10" stroke-dasharray="12,12" x1="304.604" y1="432" x2="304.604" y2="594"/>
		<line fill="none" stroke="#6D6E71" stroke-width="4" stroke-miterlimit="10" x1="304.604" y1="600" x2="304.604" y2="606"/>
	</g>
</g>
<g>
	<g>
		<line fill="none" stroke="#6D6E71" stroke-width="4" stroke-miterlimit="10" x1="503.479" y1="414" x2="503.479" y2="420"/>
		
			<line fill="none" stroke="#6D6E71" stroke-width="4" stroke-miterlimit="10" stroke-dasharray="12,12" x1="503.479" y1="432" x2="503.479" y2="594"/>
		<line fill="none" stroke="#6D6E71" stroke-width="4" stroke-miterlimit="10" x1="503.479" y1="600" x2="503.479" y2="606"/>
	</g>
</g>
<g>
	<g>
		<line fill="none" stroke="#CC9998" stroke-width="2" stroke-miterlimit="10" x1="112.479" y1="569" x2="292.938" y2="569"/>
		<g>
			<polygon fill="#CC9998" points="290.901,553.773 290.901,584.146 306.083,568.961 			"/>
		</g>
	</g>
</g>
<rect x="108.646" y="554.733" fill="#CC9998" stroke="#CC9998" stroke-width="2" stroke-miterlimit="10" width="181.833" height="28.434"/>
<text transform="matrix(1 0 0 1 163.8516 574)" font-family="'LucidaConsole'" font-size="18">git add</text>
<path fill="#CFE4F6" stroke="#58595B" stroke-width="2" stroke-miterlimit="10" d="M371.867,454c0,10.08-5.953,18.252-13.296,18.252
	H248.886c-7.343,0-13.295-8.172-13.295-18.252l0,0c0-10.08,5.953-18.252,13.295-18.252h109.686
	C365.914,435.748,371.867,443.92,371.867,454L371.867,454z"/>
<text transform="matrix(1 0 0 1 288.5132 461)" font-family="'MyriadPro-Regular'" font-size="21">file.txt</text>
<text transform="matrix(1 0 0 1 247.8496 461)" font-family="'MyriadPro-It'" font-size="14">v1</text>
<g>
	<g>
		
			<line fill="none" stroke="#CC9998" stroke-width="2" stroke-miterlimit="10" x1="315.729" y1="532.833" x2="490.376" y2="532.833"/>
		<g>
			<polygon fill="#CC9998" points="488.34,517.605 488.34,547.979 503.521,532.794 			"/>
		</g>
	</g>
</g>
<rect x="307.084" y="518.566" fill="#CC9998" stroke="#CC9998" stroke-width="2" stroke-miterlimit="10" width="180.395" height="28.434"/>
<text transform="matrix(1 0 0 1 350.0215 537.833)" font-family="'LucidaConsole'" font-size="18">git commit</text>
<path fill="#CFE4F6" stroke="#58595B" stroke-width="2" stroke-miterlimit="10" d="M571.66,454c0,10.08-5.953,18.252-13.296,18.252
	H448.679c-7.343,0-13.296-8.172-13.296-18.252l0,0c0-10.08,5.953-18.252,13.296-18.252h109.686
	C565.707,435.748,571.66,443.92,571.66,454L571.66,454z"/>
<text transform="matrix(1 0 0 1 488.3066 461)" font-family="'MyriadPro-Regular'" font-size="21">file.txt</text>
<text transform="matrix(1 0 0 1 447.6426 461)" font-family="'MyriadPro-It'" font-size="14">v1</text>
<path fill="#ADAFB2" stroke="#231F20" stroke-miterlimit="10" d="M550.822,178.014c0,9.657-5.373,17.486-12,17.486h-72
	c-6.627,0-12-7.829-12-17.486v-16.028c0-9.657,5.373-17.486,12-17.486h72c6.627,0,12,7.829,12,17.486V178.014z"/>
<path fill="#FDCC9A" stroke="#FBBF9C" stroke-miterlimit="10" d="M550.822,197c0,6.627-5.373,12-12,12h-72c-6.627,0-12-5.373-12-12
	v-11c0-6.628,5.373-12,12-12h72c6.627,0,12,5.372,12,12V197z"/>
<path fill="#C7BEDC" stroke="#231F20" stroke-width="2" stroke-miterlimit="10" d="M564.885,271.5c0,6.627-5.373,12-12,12h-99
	c-6.627,0-12-5.373-12-12v-16c0-6.627,5.373-12,12-12h99c6.627,0,12,5.373,12,12V271.5z"/>
<g>
	<g>
		<line fill="none" stroke="#231F20" stroke-width="2" stroke-miterlimit="10" x1="503.385" y1="283.5" x2="503.385" y2="333.879"/>
		<g>
			<path fill="#231F20" d="M503.385,333.074c2.09-2.09,6.223-3.086,9.09-3.168c-3.85,2.865-7.207,6.589-9.09,11.094
				c-1.803-4.505-5.363-8.064-9.09-11.094C497.365,330.152,501.092,330.902,503.385,333.074z"/>
		</g>
	</g>
</g>
<text transform="matrix(1 0 0 1 476.5781 268.5)" font-family="'MyriadPro-Regular'" font-size="21">6e538</text>
<text transform="matrix(1 0 0 1 472.3223 199.5)" font-family="'MyriadPro-Regular'" font-size="21">Master</text>
<g>
	<g>
		
			<line fill="none" stroke="#231F20" stroke-width="2" stroke-miterlimit="10" x1="503.385" y1="211.25" x2="503.385" y2="232.879"/>
		<g>
			<path fill="#231F20" d="M503.385,232.074c2.09-2.09,6.223-3.086,9.09-3.168c-3.85,2.865-7.207,6.589-9.09,11.094
				c-1.803-4.505-5.363-8.064-9.09-11.094C497.365,229.152,501.092,229.902,503.385,232.074z"/>
		</g>
	</g>
</g>
<text transform="matrix(1 0 0 1 476.5781 167.5)" font-family="'MyriadPro-Regular'" font-size="21">HEAD</text>
</svg>
