<?xml version="1.0" encoding="utf-8"?>
<!-- Generator: Adobe Illustrator 15.0.0, SVG Export Plug-In . SVG Version: 6.00 Build 0)  -->
<!DOCTYPE svg PUBLIC "-//W3C//DTD SVG 1.1//EN" "http://www.w3.org/Graphics/SVG/1.1/DTD/svg11.dtd">
<svg version="1.1" id="Layer_1" xmlns="http://www.w3.org/2000/svg" xmlns:xlink="http://www.w3.org/1999/xlink" x="0px" y="0px"
	 width="612px" height="792px" viewBox="0 0 612 792" enable-background="new 0 0 612 792" xml:space="preserve">
<path fill="#ABCC9B" stroke="#000000" stroke-width="2" stroke-miterlimit="10" d="M192.75,251c0,6.627-5.225,12-11.67,12H27.42
	c-6.445,0-11.67-5.373-11.67-12v-47c0-6.627,5.225-12,11.67-12h153.66c6.445,0,11.67,5.373,11.67,12V251z"/>
<path fill="#FCF6B6" stroke="#000000" stroke-width="2" stroke-miterlimit="10" d="M391.75,251c0,6.627-5.225,12-11.67,12H226.42
	c-6.445,0-11.67-5.373-11.67-12v-47c0-6.627,5.225-12,11.67-12h153.66c6.445,0,11.67,5.373,11.67,12V251z"/>
<path fill="#9DCDC9" stroke="#000000" stroke-width="2" stroke-miterlimit="10" d="M590.5,251c0,6.627-5.225,12-11.67,12H425.17
	c-6.445,0-11.67-5.373-11.67-12v-47c0-6.627,5.225-12,11.67-12h153.66c6.445,0,11.67,5.373,11.67,12V251z"/>
<rect x="25.25" y="263" fill="#E6E7E8" stroke="#000000" stroke-width="2" stroke-miterlimit="10" width="158" height="192"/>
<rect x="224.125" y="263" fill="#E6E7E8" stroke="#000000" stroke-width="2" stroke-miterlimit="10" width="158" height="192"/>
<rect x="423" y="263" fill="#E6E7E8" stroke="#000000" stroke-width="2" stroke-miterlimit="10" width="158" height="192"/>
<text transform="matrix(1 0 0 1 61.7827 220)"><tspan x="0" y="0" font-family="'MyriadPro-Regular'" font-size="24">Working</tspan><tspan x="-3.78" y="28.8" font-family="'MyriadPro-Regular'" font-size="24">Directory</tspan></text>
<text transform="matrix(1 0 0 1 277.6084 220)"><tspan x="0" y="0" font-family="'MyriadPro-Regular'" font-size="24">Stage</tspan><tspan x="-6.288" y="28.8" font-family="'MyriadPro-Regular'" font-size="24">(Index)</tspan></text>
<text transform="matrix(1 0 0 1 475.7559 220)"><tspan x="0" y="0" font-family="'MyriadPro-Regular'" font-size="24">Local</tspan><tspan x="-27.335" y="28.8" font-family="'MyriadPro-Regular'" font-size="24">Repository</tspan></text>
<g>
	<line fill="#ABCC9B" x1="104.25" y1="263" x2="104.25" y2="455"/>
	<g>
		<line fill="none" stroke="#6D6E71" stroke-width="4" stroke-miterlimit="10" x1="104.25" y1="263" x2="104.25" y2="269"/>
		
			<line fill="none" stroke="#6D6E71" stroke-width="4" stroke-miterlimit="10" stroke-dasharray="12,12" x1="104.25" y1="281" x2="104.25" y2="443"/>
		<line fill="none" stroke="#6D6E71" stroke-width="4" stroke-miterlimit="10" x1="104.25" y1="449" x2="104.25" y2="455"/>
	</g>
</g>
<path fill="#CFE4F6" stroke="#58595B" stroke-width="2" stroke-miterlimit="10" d="M172.388,303
	c0,10.081-5.953,18.252-13.295,18.252H49.407c-7.343,0-13.295-8.172-13.295-18.252l0,0c0-10.08,5.953-18.252,13.295-18.252h109.686
	C166.436,284.748,172.388,292.92,172.388,303L172.388,303z"/>
<text transform="matrix(1 0 0 1 89.0347 310)" font-family="'MyriadPro-Regular'" font-size="21">file.txt</text>
<text transform="matrix(1 0 0 1 48.3711 310)" font-family="'MyriadPro-It'" font-size="14">v1</text>
<g>
	<g>
		<line fill="none" stroke="#6D6E71" stroke-width="4" stroke-miterlimit="10" x1="306" y1="263" x2="306" y2="269"/>
		
			<line fill="none" stroke="#6D6E71" stroke-width="4" stroke-miterlimit="10" stroke-dasharray="12,12" x1="306" y1="281" x2="306" y2="443"/>
		<line fill="none" stroke="#6D6E71" stroke-width="4" stroke-miterlimit="10" x1="306" y1="449" x2="306" y2="455"/>
	</g>
</g>
<g>
	<g>
		<line fill="none" stroke="#6D6E71" stroke-width="4" stroke-miterlimit="10" x1="502" y1="263" x2="502" y2="269"/>
		
			<line fill="none" stroke="#6D6E71" stroke-width="4" stroke-miterlimit="10" stroke-dasharray="12,12" x1="502" y1="281" x2="502" y2="443"/>
		<line fill="none" stroke="#6D6E71" stroke-width="4" stroke-miterlimit="10" x1="502" y1="449" x2="502" y2="455"/>
	</g>
</g>
</svg>
