<?xml version="1.0" encoding="utf-8"?>
<!-- Generator: Adobe Illustrator 15.0.0, SVG Export Plug-In . SVG Version: 6.00 Build 0)  -->
<!DOCTYPE svg PUBLIC "-//W3C//DTD SVG 1.1//EN" "http://www.w3.org/Graphics/SVG/1.1/DTD/svg11.dtd">
<svg version="1.1" id="Layer_1" xmlns="http://www.w3.org/2000/svg" xmlns:xlink="http://www.w3.org/1999/xlink" x="0px" y="0px"
	 width="612px" height="792px" viewBox="0 0 612 792" enable-background="new 0 0 612 792" xml:space="preserve">
<path fill="#ABCC9B" stroke="#000000" stroke-width="2" stroke-miterlimit="10" d="M193.375,370.5c0,6.627-5.225,12-11.67,12H28.045
	c-6.445,0-11.67-5.373-11.67-12v-47c0-6.627,5.225-12,11.67-12h153.66c6.445,0,11.67,5.373,11.67,12V370.5z"/>
<path fill="#FCF6B6" stroke="#000000" stroke-width="2" stroke-miterlimit="10" d="M392.375,370.5c0,6.627-5.225,12-11.67,12
	h-153.66c-6.445,0-11.67-5.373-11.67-12v-47c0-6.627,5.225-12,11.67-12h153.66c6.445,0,11.67,5.373,11.67,12V370.5L392.375,370.5z"
	/>
<path fill="#9DCDC9" stroke="#000000" stroke-width="2" stroke-miterlimit="10" d="M591.125,370.5c0,6.627-5.225,12-11.67,12
	h-153.66c-6.445,0-11.67-5.373-11.67-12v-47c0-6.627,5.225-12,11.67-12h153.66c6.445,0,11.67,5.373,11.67,12V370.5z"/>
<rect x="25.875" y="382.5" fill="#E6E7E8" stroke="#000000" stroke-width="2" stroke-miterlimit="10" width="158" height="192"/>
<rect x="224.75" y="382.5" fill="#E6E7E8" stroke="#000000" stroke-width="2" stroke-miterlimit="10" width="158" height="192"/>
<rect x="423.625" y="382.5" fill="#E6E7E8" stroke="#000000" stroke-width="2" stroke-miterlimit="10" width="158" height="192"/>
<text transform="matrix(1 0 0 1 62.4077 339.5)" font-family="'MyriadPro-Regular'" font-size="24">Working</text>
<text transform="matrix(1 0 0 1 58.6279 368.2998)" font-family="'MyriadPro-Regular'" font-size="24">Directory</text>
<text transform="matrix(1 0 0 1 278.2334 339.5)" font-family="'MyriadPro-Regular'" font-size="24">Stage</text>
<text transform="matrix(1 0 0 1 271.9453 368.2998)" font-family="'MyriadPro-Regular'" font-size="24">(Index)</text>
<text transform="matrix(1 0 0 1 476.3809 339.5)" font-family="'MyriadPro-Regular'" font-size="24">Local</text>
<text transform="matrix(1 0 0 1 449.0459 368.2998)" font-family="'MyriadPro-Regular'" font-size="24">Repository</text>
<g>
	<line fill="none" x1="104.875" y1="382.5" x2="104.875" y2="574.5"/>
	<g>
		<line fill="none" stroke="#6D6E71" stroke-width="4" stroke-miterlimit="10" x1="104.875" y1="382.5" x2="104.875" y2="388.5"/>
		
			<line fill="none" stroke="#6D6E71" stroke-width="4" stroke-miterlimit="10" stroke-dasharray="12,12" x1="104.875" y1="400.5" x2="104.875" y2="562.5"/>
		<line fill="none" stroke="#6D6E71" stroke-width="4" stroke-miterlimit="10" x1="104.875" y1="568.5" x2="104.875" y2="574.5"/>
	</g>
</g>
<path fill="#CFE4F6" stroke="#58595B" stroke-width="2" stroke-miterlimit="10" d="M173.013,422.5
	c0,10.081-5.953,18.252-13.295,18.252H50.032c-7.343,0-13.295-8.172-13.295-18.252l0,0c0-10.08,5.953-18.252,13.295-18.252h109.686
	C167.061,404.248,173.013,412.42,173.013,422.5L173.013,422.5z"/>
<text transform="matrix(1 0 0 1 89.6597 429.5)" font-family="'MyriadPro-Regular'" font-size="21">file.txt</text>
<text transform="matrix(1 0 0 1 48.9961 429.5)" font-family="'MyriadPro-It'" font-size="14">v2</text>
<g>
	<g>
		<line fill="none" stroke="#6D6E71" stroke-width="4" stroke-miterlimit="10" x1="303.75" y1="382.5" x2="303.75" y2="388.5"/>
		
			<line fill="none" stroke="#6D6E71" stroke-width="4" stroke-miterlimit="10" stroke-dasharray="12,12" x1="303.75" y1="400.5" x2="303.75" y2="562.5"/>
		<line fill="none" stroke="#6D6E71" stroke-width="4" stroke-miterlimit="10" x1="303.75" y1="568.5" x2="303.75" y2="574.5"/>
	</g>
</g>
<g>
	<g>
		<line fill="none" stroke="#6D6E71" stroke-width="4" stroke-miterlimit="10" x1="502.625" y1="382.5" x2="502.625" y2="388.5"/>
		
			<line fill="none" stroke="#6D6E71" stroke-width="4" stroke-miterlimit="10" stroke-dasharray="12,12" x1="502.625" y1="400.5" x2="502.625" y2="562.5"/>
		<line fill="none" stroke="#6D6E71" stroke-width="4" stroke-miterlimit="10" x1="502.625" y1="568.5" x2="502.625" y2="574.5"/>
	</g>
</g>
<path fill="#CFE4F6" stroke="#58595B" stroke-width="2" stroke-miterlimit="10" d="M372.514,422.5
	c0,10.08-5.953,18.252-13.296,18.252H249.532c-7.343,0-13.295-8.172-13.295-18.252l0,0c0-10.08,5.953-18.252,13.295-18.252h109.686
	C366.561,404.248,372.514,412.42,372.514,422.5L372.514,422.5z"/>
<text transform="matrix(1 0 0 1 287.6597 429.5)" font-family="'MyriadPro-Regular'" font-size="21">file.txt</text>
<text transform="matrix(1 0 0 1 246.9961 429.5)" font-family="'MyriadPro-It'" font-size="14">v2</text>
<path fill="#CFE4F6" stroke="#58595B" stroke-width="2" stroke-miterlimit="10" d="M570.807,422.5
	c0,10.08-5.953,18.252-13.296,18.252H447.825c-7.343,0-13.296-8.172-13.296-18.252l0,0c0-10.08,5.953-18.252,13.296-18.252h109.686
	C564.854,404.248,570.807,412.42,570.807,422.5L570.807,422.5z"/>
<text transform="matrix(1 0 0 1 487.4531 429.5)" font-family="'MyriadPro-Regular'" font-size="21">file.txt</text>
<text transform="matrix(1 0 0 1 446.7891 429.5)" font-family="'MyriadPro-It'" font-size="14">v2</text>
<path fill="#EDD0F4" stroke="#58595B" stroke-width="2" stroke-miterlimit="10" d="M173.014,468.5
	c0,10.081-5.953,18.252-13.296,18.252H50.032c-7.343,0-13.295-8.172-13.295-18.252l0,0c0-10.08,5.953-18.252,13.295-18.252h109.686
	C167.061,450.248,173.014,458.42,173.014,468.5L173.014,468.5z"/>
<text transform="matrix(1 0 0 1 89.6597 475.5)" font-family="'MyriadPro-Regular'" font-size="21">file.txt</text>
<text transform="matrix(1 0 0 1 48.9961 475.5)" font-family="'MyriadPro-It'" font-size="14">v1</text>
<g>
	<g>
		<line fill="none" stroke="#CB9798" stroke-width="2" stroke-miterlimit="10" x1="108.708" y1="547.05" x2="289.167" y2="547.05"/>
		<g>
			<polygon fill="#CB9798" points="287.131,531.823 287.131,562.196 302.313,547.011 			"/>
		</g>
	</g>
</g>
<rect x="104.875" y="532.783" fill="#CB9798" stroke="#CB9798" stroke-width="2" stroke-miterlimit="10" width="181.833" height="28.434"/>
<text transform="matrix(1 0 0 1 160.0815 552.0498)" fill="#231F20" font-family="'LucidaConsole'" font-size="18">git add</text>
<path fill="#EDD0F4" stroke="#58595B" stroke-width="2" stroke-miterlimit="10" d="M372.514,468.5
	c0,10.081-5.953,18.252-13.296,18.252H249.532c-7.343,0-13.295-8.172-13.295-18.252l0,0c0-10.08,5.953-18.252,13.295-18.252h109.686
	C366.561,450.248,372.514,458.42,372.514,468.5L372.514,468.5z"/>
<text transform="matrix(1 0 0 1 290.6597 475.5)" font-family="'MyriadPro-Regular'" font-size="21">file.txt</text>
<text transform="matrix(1 0 0 1 249.9961 475.5)" font-family="'MyriadPro-It'" font-size="14">v1</text>
<g>
	<g>
		
			<line fill="none" stroke="#CC9998" stroke-width="2" stroke-miterlimit="10" x1="315.094" y1="515.333" x2="489.741" y2="515.333"/>
		<g>
			<polygon fill="#CC9998" points="487.705,500.105 487.705,530.479 502.887,515.294 			"/>
		</g>
	</g>
</g>
<rect x="306.449" y="501.066" fill="#CC9998" stroke="#CC9998" stroke-width="2" stroke-miterlimit="10" width="180.395" height="28.434"/>
<text transform="matrix(1 0 0 1 349.3867 520.333)" font-family="'LucidaConsole'" font-size="18">git commit</text>
<path fill="#EDD0F4" stroke="#58595B" stroke-width="2" stroke-miterlimit="10" d="M571.025,468.5
	c0,10.081-5.953,18.252-13.297,18.252H448.044c-7.343,0-13.296-8.172-13.296-18.252l0,0c0-10.08,5.953-18.252,13.296-18.252H557.73
	C565.072,450.248,571.025,458.42,571.025,468.5L571.025,468.5z"/>
<text transform="matrix(1 0 0 1 489.1719 475.5)" font-family="'MyriadPro-Regular'" font-size="21">file.txt</text>
<text transform="matrix(1 0 0 1 448.5078 475.5)" font-family="'MyriadPro-It'" font-size="14">v1</text>
<path fill="#FDCC9A" stroke="#FBBF9C" stroke-miterlimit="10" d="M548.188,167.5c0,6.627-5.372,12-12,12h-72
	c-6.627,0-12-5.373-12-12v-11c0-6.628,5.373-12,12-12h72c6.628,0,12,5.372,12,12V167.5z"/>
<path fill="#C7BEDC" stroke="#231F20" stroke-width="2" stroke-miterlimit="10" d="M562.25,242c0,6.627-5.373,12-12,12h-99
	c-6.627,0-12-5.373-12-12v-16c0-6.627,5.373-12,12-12h99c6.627,0,12,5.373,12,12V242z"/>
<g>
	<g>
		<line fill="none" stroke="#231F20" stroke-width="2" stroke-miterlimit="10" x1="500.75" y1="254" x2="500.75" y2="304.379"/>
		<g>
			<path fill="#231F20" d="M500.75,303.574c2.09-2.09,6.223-3.086,9.09-3.168c-3.85,2.865-7.207,6.589-9.09,11.094
				c-1.803-4.505-5.363-8.064-9.09-11.094C494.73,300.652,498.457,301.402,500.75,303.574z"/>
		</g>
	</g>
</g>
<path fill="#C7BEDC" stroke="#231F20" stroke-width="2" stroke-miterlimit="10" d="M376.594,242c0,6.627-5.373,12-12,12h-99
	c-6.627,0-12-5.373-12-12v-16c0-6.627,5.373-12,12-12h99c6.627,0,12,5.373,12,12V242z"/>
<g>
	<g>
		
			<line fill="none" stroke="#231F20" stroke-width="2" stroke-miterlimit="10" x1="436.608" y1="233.979" x2="386.229" y2="234.016"/>
		<g>
			<path fill="#231F20" d="M387.034,234.015c2.092,2.088,3.09,6.22,3.175,9.087c-2.868-3.848-6.596-7.202-11.102-9.082
				c4.504-1.806,8.062-5.369,11.088-9.098C389.952,227.992,389.204,231.72,387.034,234.015z"/>
		</g>
	</g>
</g>
<text transform="matrix(1 0 0 1 469.6875 170)" font-family="'MyriadPro-Regular'" font-size="21">Master</text>
<g>
	<g>
		<line fill="none" stroke="#231F20" stroke-width="2" stroke-miterlimit="10" x1="500.75" y1="181.75" x2="500.75" y2="203.379"/>
		<g>
			<path fill="#231F20" d="M500.75,202.574c2.09-2.09,6.223-3.086,9.09-3.168c-3.85,2.865-7.207,6.589-9.09,11.094
				c-1.803-4.505-5.363-8.064-9.09-11.094C494.73,199.652,498.457,200.402,500.75,202.574z"/>
		</g>
	</g>
</g>
<text transform="matrix(1 0 0 1 287.1309 239)" font-family="'MyriadPro-Regular'" font-size="21">6e538</text>
<text transform="matrix(1 0 0 1 476.3809 239)" font-family="'MyriadPro-Regular'" font-size="21">bc07e</text>
<path fill="#ADAFB2" stroke="#231F20" stroke-miterlimit="10" d="M548.75,101.357c0,6.154-5.373,11.143-12,11.143h-72
	c-6.627,0-12-4.989-12-11.143V91.143c0-6.154,5.373-11.143,12-11.143h72c6.627,0,12,4.989,12,11.143V101.357z"/>
<text transform="matrix(1 0 0 1 474.5059 103)" font-family="'MyriadPro-Regular'" font-size="21">HEAD</text>
<g>
	<g>
		
			<line fill="none" stroke="#231F20" stroke-width="2" stroke-miterlimit="10" x1="502.531" y1="113.125" x2="502.531" y2="134.754"/>
		<g>
			<path fill="#231F20" d="M502.531,133.949c2.09-2.09,6.223-3.086,9.09-3.168c-3.85,2.865-7.207,6.589-9.09,11.094
				c-1.804-4.505-5.363-8.064-9.09-11.094C496.512,131.027,500.238,131.777,502.531,133.949z"/>
		</g>
	</g>
</g>
</svg>
